HIERARCHY
ROOT Hip
{
	OFFSET 0.000000 -1.816777 0.247491
	CHANNELS 6 Xposition Yposition Zposition Xrotation Yrotation Zrotation
	JOINT LowerSpine
	{
		OFFSET 0.000000 0.154692 0.259873
		CHANNELS 6 Xposition Yposition Zposition Xrotation Yrotation Zrotation
		JOINT MiddleSpine
		{
			OFFSET -0.000000 -0.011153 0.237154
			CHANNELS 3 Xrotation Yrotation Zrotation
			JOINT Chest
			{
				OFFSET -0.000000 0.058786 0.293448
				CHANNELS 3 Xrotation Yrotation Zrotation
				JOINT Neck
				{
					OFFSET -0.000000 0.012376 0.661279
					CHANNELS 6 Xposition Yposition Zposition Xrotation Yrotation Zrotation
					JOINT Head
					{
						OFFSET -0.000003 -0.101573 0.373433
						CHANNELS 3 Xrotation Yrotation Zrotation
						End Site
						{
							OFFSET 0.000000 -0.001601 0.053629
						}
					}
				}
				JOINT LClavicle
				{
					OFFSET 0.060085 -0.196776 0.638168
					CHANNELS 6 Xposition Yposition Zposition Xrotation Yrotation Zrotation
					JOINT LShoulder
					{
						OFFSET 0.351027 0.148115 0.091534
						CHANNELS 3 Xrotation Yrotation Zrotation
						JOINT LForearm
						{
							OFFSET 0.828501 0.007179 -0.002938
							CHANNELS 3 Xrotation Yrotation Zrotation
							JOINT LHand
							{
								OFFSET 0.691144 0.004141 0.002004
								CHANNELS 3 Xrotation Yrotation Zrotation
								JOINT LFinger1
								{
									OFFSET 0.267868 -0.074399 0.023427
									CHANNELS 6 Xposition Yposition Zposition Xrotation Yrotation Zrotation
									JOINT LFinger11
									{
										OFFSET 0.100195 -0.017654 -0.024433
										CHANNELS 3 Xrotation Yrotation Zrotation
										JOINT LFinger12
										{
											OFFSET 0.068401 -0.012057 -0.016682
											CHANNELS 3 Xrotation Yrotation Zrotation
											End Site
											{
												OFFSET 0.050801 -0.008241 -0.015164
											}
										}
									}
								}
								JOINT LFinger2
								{
									OFFSET 0.271866 -0.006477 0.027053
									CHANNELS 6 Xposition Yposition Zposition Xrotation Yrotation Zrotation
									JOINT LFinger21
									{
										OFFSET 0.123886 0.000731 0.000344
										CHANNELS 3 Xrotation Yrotation Zrotation
										JOINT LFinger22
										{
											OFFSET 0.068670 0.000417 0.000210
											CHANNELS 3 Xrotation Yrotation Zrotation
											End Site
											{
												OFFSET 0.053519 -0.000073 -0.003781
											}
										}
									}
								}
								JOINT LFinger3
								{
									OFFSET 0.257651 0.060956 0.018054
									CHANNELS 6 Xposition Yposition Zposition Xrotation Yrotation Zrotation
									JOINT LFinger31
									{
										OFFSET 0.112414 0.007039 -0.005693
										CHANNELS 3 Xrotation Yrotation Zrotation
										JOINT LFinger32
										{
											OFFSET 0.064058 0.004024 -0.003223
											CHANNELS 3 Xrotation Yrotation Zrotation
											End Site
											{
												OFFSET 0.053193 0.002514 -0.006540
											}
										}
									}
								}
								JOINT LFinger4
								{
									OFFSET 0.239089 0.105269 -0.018169
									CHANNELS 6 Xposition Yposition Zposition Xrotation Yrotation Zrotation
									JOINT LFinger41
									{
										OFFSET 0.069146 0.019088 -0.014420
										CHANNELS 3 Xrotation Yrotation Zrotation
										JOINT LFinger42
										{
											OFFSET 0.050705 0.014006 -0.010559
											CHANNELS 3 Xrotation Yrotation Zrotation
											End Site
											{
												OFFSET 0.050514 0.011591 -0.013879
											}
										}
									}
								}
								JOINT LFinger0
								{
									OFFSET 0.055412 -0.042009 -0.041941
									CHANNELS 6 Xposition Yposition Zposition Xrotation Yrotation Zrotation
									JOINT LFinger01
									{
										OFFSET 0.103169 -0.077784 -0.033880
										CHANNELS 3 Xrotation Yrotation Zrotation
										JOINT LFinger02
										{
											OFFSET 0.067934 -0.048944 -0.024309
											CHANNELS 3 Xrotation Yrotation Zrotation
											End Site
											{
												OFFSET 0.042584 -0.029159 -0.014660
											}
										}
									}
								}
							}
						}
					}
				}
				JOINT RClavicle
				{
					OFFSET -0.060085 -0.196776 0.638168
					CHANNELS 6 Xposition Yposition Zposition Xrotation Yrotation Zrotation
					JOINT RShoulder
					{
						OFFSET -0.351089 0.148140 0.091551
						CHANNELS 3 Xrotation Yrotation Zrotation
						JOINT RForearm
						{
							OFFSET -0.828500 0.007180 -0.002939
							CHANNELS 3 Xrotation Yrotation Zrotation
							JOINT RHand
							{
								OFFSET -0.691144 0.004141 0.002003
								CHANNELS 3 Xrotation Yrotation Zrotation
								JOINT RFinger1
								{
									OFFSET -0.267870 -0.074399 0.023430
									CHANNELS 6 Xposition Yposition Zposition Xrotation Yrotation Zrotation
									JOINT RFinger11
									{
										OFFSET -0.100195 -0.017654 -0.024433
										CHANNELS 3 Xrotation Yrotation Zrotation
										JOINT RFinger12
										{
											OFFSET -0.068401 -0.012057 -0.016688
											CHANNELS 3 Xrotation Yrotation Zrotation
											End Site
											{
												OFFSET -0.050801 -0.008241 -0.015164
											}
										}
									}
								}
								JOINT RFinger2
								{
									OFFSET -0.271866 -0.006479 0.027053
									CHANNELS 6 Xposition Yposition Zposition Xrotation Yrotation Zrotation
									JOINT RFinger21
									{
										OFFSET -0.123886 0.000731 0.000347
										CHANNELS 3 Xrotation Yrotation Zrotation
										JOINT RFinger22
										{
											OFFSET -0.068670 0.000420 0.000210
											CHANNELS 3 Xrotation Yrotation Zrotation
											End Site
											{
												OFFSET -0.053519 -0.000073 -0.003781
											}
										}
									}
								}
								JOINT RFinger3
								{
									OFFSET -0.257650 0.060956 0.018056
									CHANNELS 6 Xposition Yposition Zposition Xrotation Yrotation Zrotation
									JOINT RFinger31
									{
										OFFSET -0.112414 0.007039 -0.005693
										CHANNELS 3 Xrotation Yrotation Zrotation
										JOINT RFinger32
										{
											OFFSET -0.064061 0.004024 -0.003223
											CHANNELS 3 Xrotation Yrotation Zrotation
											End Site
											{
												OFFSET -0.053193 0.002514 -0.006540
											}
										}
									}
								}
								JOINT RFinger4
								{
									OFFSET -0.239089 0.105269 -0.018170
									CHANNELS 6 Xposition Yposition Zposition Xrotation Yrotation Zrotation
									JOINT RFinger41
									{
										OFFSET -0.069146 0.019088 -0.014420
										CHANNELS 3 Xrotation Yrotation Zrotation
										JOINT RFinger42
										{
											OFFSET -0.050705 0.014006 -0.010556
											CHANNELS 3 Xrotation Yrotation Zrotation
											End Site
											{
												OFFSET -0.050514 0.011591 -0.013879
											}
										}
									}
								}
								JOINT RFinger0
								{
									OFFSET -0.055412 -0.042006 -0.041939
									CHANNELS 6 Xposition Yposition Zposition Xrotation Yrotation Zrotation
									JOINT RFinger01
									{
										OFFSET -0.103169 -0.077787 -0.033886
										CHANNELS 3 Xrotation Yrotation Zrotation
										JOINT RFinger02
										{
											OFFSET -0.067934 -0.048944 -0.024307
											CHANNELS 3 Xrotation Yrotation Zrotation
											End Site
											{
												OFFSET -0.042584 -0.029159 -0.014660
											}
										}
									}
								}
							}
						}
					}
				}
			}
		}
	}
	JOINT RThigh
	{
		OFFSET -0.307261 0.025206 0.117468
		CHANNELS 6 Xposition Yposition Zposition Xrotation Yrotation Zrotation
		JOINT RShin
		{
			OFFSET -0.022246 0.000000 -1.209169
			CHANNELS 3 Xrotation Yrotation Zrotation
			JOINT RFoot
			{
				OFFSET -0.000000 0.000000 -1.187332
				CHANNELS 3 Xrotation Yrotation Zrotation
				JOINT RToe
				{
					OFFSET -0.000000 -0.272888 -0.130497
					CHANNELS 3 Xrotation Yrotation Zrotation
					End Site
					{
						OFFSET 0.000000 -0.053652 0.000000
					}
				}
			}
		}
	}
	JOINT LThigh
	{
		OFFSET 0.307258 0.025206 0.117477
		CHANNELS 6 Xposition Yposition Zposition Xrotation Yrotation Zrotation
		JOINT LShin
		{
			OFFSET 0.022246 0.000000 -1.209177
			CHANNELS 3 Xrotation Yrotation Zrotation
			JOINT LFoot
			{
				OFFSET -0.000000 0.000001 -1.187331
				CHANNELS 3 Xrotation Yrotation Zrotation
				JOINT LToe
				{
					OFFSET 0.000000 -0.272891 -0.130500
					CHANNELS 3 Xrotation Yrotation Zrotation
					End Site
					{
						OFFSET 0.000000 -0.053652 0.000000
					}
				}
			}
		}
	}
}
MOTION
Frames: 4
Frame Time: 0.041667
-0.916359 2.973712 2.209826 -9.310007 5.984858 159.142206 0.000000 0.154692 0.259873 0.000004 0.000006 -0.000003 -2.488844 1.477514 1.102357 -8.422519 4.729287 3.928210 0.000000 0.012376 0.661279 -4.563172 3.500435 1.103786 1.316614 -0.260738 -0.005929 0.060085 -0.196776 0.638167 -1.171925 8.210059 -0.102699 17.056975 8.277788 -34.643116 0.134814 -0.046585 -51.314661 -10.096019 9.063270 -18.545121 0.267867 -0.074399 0.023427 0.000002 -0.000004 0.000002 0.000002 0.000004 -0.000003 0.000002 0.000004 -0.000005 0.271865 -0.006476 0.027053 -0.000001 -0.000003 0.000008 -0.000001 -0.000003 0.000003 0.000001 0.000003 0.000011 0.257650 0.060956 0.018054 -0.000003 -0.000005 -0.000003 0.000000 0.000004 0.000001 0.000003 -0.000011 0.000004 0.239089 0.105269 -0.018170 -0.000006 -0.000006 0.000003 -0.000000 0.000004 -0.000009 -0.000009 -0.000004 -0.000009 0.055412 -0.042009 -0.041942 0.000005 -0.000011 0.000006 -0.000004 -0.000005 0.000007 0.000003 -0.000003 -0.000000 -0.060085 -0.196776 0.638167 3.693627 -14.094025 5.592200 35.546050 -66.053209 36.414628 0.033167 -0.001924 9.383240 -0.000001 0.000004 0.000008 -0.267871 -0.074399 0.023430 0.000004 -0.000011 0.000002 0.000002 0.000006 0.000004 0.000001 -0.000007 0.000007 -0.271867 -0.006479 0.027053 0.000000 -0.000002 -0.000003 -0.000001 0.000002 0.000007 0.000001 -0.000005 -0.000002 -0.257650 0.060956 0.018056 -0.000002 -0.000008 -0.000005 -0.000002 0.000006 -0.000000 0.000001 0.000004 0.000004 -0.239089 0.105269 -0.018170 -0.000001 -0.000005 0.000007 -0.000001 -0.000001 0.000001 -0.000002 -0.000003 -0.000009 -0.055412 -0.042006 -0.041938 -0.000009 0.000003 -0.000009 -0.000007 -0.000009 0.000013 -0.000003 -0.000003 0.000009 -0.315237 0.018288 0.018327 -1.538203 15.416148 19.978003 34.274439 -0.000009 -0.000001 1.685064 1.989905 -4.297416 -38.153874 -0.000011 -0.000032 0.325353 0.032085 0.290471 -8.127063 5.954477 -0.149241 3.401497 0.000011 -0.000002 -0.450936 0.167562 -0.348672 0.000000 0.000001 -0.000014 
-0.916359 2.973712 2.209826 -9.310007 5.984858 159.142206 0.000000 0.154692 0.259873 0.000004 0.000006 -0.000003 -2.488844 1.477514 1.102357 -8.422519 4.729287 3.928210 0.000000 0.012376 0.661279 -4.563172 3.500435 1.103786 1.316614 -0.260738 -0.005929 0.060085 -0.196776 0.638167 -1.171925 8.210059 -0.102699 17.056975 8.277788 -34.643116 0.134814 -0.046585 -51.314661 -10.096019 9.063270 -18.545121 0.267867 -0.074399 0.023427 0.000002 -0.000004 0.000002 0.000002 0.000004 -0.000003 0.000002 0.000004 -0.000005 0.271865 -0.006476 0.027053 -0.000001 -0.000003 0.000008 -0.000001 -0.000003 0.000003 0.000001 0.000003 0.000011 0.257650 0.060956 0.018054 -0.000003 -0.000005 -0.000003 0.000000 0.000004 0.000001 0.000003 -0.000011 0.000004 0.239089 0.105269 -0.018170 -0.000006 -0.000006 0.000003 -0.000000 0.000004 -0.000009 -0.000009 -0.000004 -0.000009 0.055412 -0.042009 -0.041942 0.000005 -0.000011 0.000006 -0.000004 -0.000005 0.000007 0.000003 -0.000003 -0.000000 -0.060085 -0.196776 0.638167 3.693627 -14.094025 5.592200 35.546050 -66.053209 36.414628 0.033167 -0.001924 9.383240 -0.000001 0.000004 0.000008 -0.267871 -0.074399 0.023430 0.000004 -0.000011 0.000002 0.000002 0.000006 0.000004 0.000001 -0.000007 0.000007 -0.271867 -0.006479 0.027053 0.000000 -0.000002 -0.000003 -0.000001 0.000002 0.000007 0.000001 -0.000005 -0.000002 -0.257650 0.060956 0.018056 -0.000002 -0.000008 -0.000005 -0.000002 0.000006 -0.000000 0.000001 0.000004 0.000004 -0.239089 0.105269 -0.018170 -0.000001 -0.000005 0.000007 -0.000001 -0.000001 0.000001 -0.000002 -0.000003 -0.000009 -0.055412 -0.042006 -0.041938 -0.000009 0.000003 -0.000009 -0.000007 -0.000009 0.000013 -0.000003 -0.000003 0.000009 -0.315237 0.018288 0.018327 -1.538203 15.416148 19.978003 34.274439 -0.000009 -0.000001 1.685064 1.989905 -4.297416 -38.153874 -0.000011 -0.000032 0.325353 0.032085 0.290471 -8.127063 5.954477 -0.149241 3.401497 0.000011 -0.000002 -0.450936 0.167562 -0.348672 0.000000 0.000001 -0.000014 
-0.913839 2.961812 2.210770 -9.715495 6.265467 156.381402 0.000000 0.154692 0.259874 0.000004 0.000005 -0.000002 -2.682564 1.418852 1.494273 -9.115266 4.453370 5.269962 0.000000 0.012376 0.661279 -4.291310 3.207344 1.002585 1.455097 -0.370063 -0.005788 0.060085 -0.196776 0.638167 -1.615805 9.510366 -0.123274 16.966658 7.212143 -33.381627 0.128668 -0.044076 -49.898732 -14.036110 15.432365 -27.349162 0.267867 -0.074400 0.023426 0.000004 -0.000003 -0.000001 0.000004 0.000002 0.000000 0.000003 -0.000003 -0.000001 0.271865 -0.006476 0.027052 -0.000000 -0.000007 0.000003 -0.000001 -0.000001 0.000000 0.000003 -0.000000 0.000007 0.257650 0.060955 0.018053 0.000003 -0.000006 -0.000005 -0.000000 0.000002 0.000000 0.000000 -0.000006 0.000001 0.239089 0.105269 -0.018171 -0.000000 -0.000003 0.000002 0.000003 0.000003 -0.000002 -0.000005 -0.000001 -0.000012 0.055412 -0.042009 -0.041942 0.000007 -0.000015 0.000004 -0.000009 -0.000003 0.000004 -0.000003 -0.000006 0.000006 -0.060085 -0.196776 0.638168 4.989356 -12.878155 7.616683 43.353277 -64.413670 44.112189 0.031840 -0.001925 9.381238 -0.000002 0.000003 0.000007 -0.267870 -0.074399 0.023430 0.000004 -0.000011 0.000000 0.000002 0.000006 0.000006 0.000002 -0.000006 0.000006 -0.271866 -0.006479 0.027053 -0.000000 -0.000002 -0.000003 -0.000001 0.000002 0.000006 0.000002 -0.000005 -0.000004 -0.257650 0.060956 0.018056 -0.000001 -0.000007 -0.000005 -0.000000 0.000007 -0.000000 -0.000000 0.000003 0.000003 -0.239089 0.105269 -0.018170 0.000000 -0.000004 0.000006 -0.000001 -0.000002 -0.000001 -0.000001 -0.000004 -0.000007 -0.055412 -0.042006 -0.041938 -0.000010 0.000006 -0.000010 -0.000001 -0.000006 0.000012 -0.000005 -0.000003 0.000006 -0.315237 0.018288 0.018328 -3.626716 17.866494 14.126595 33.502030 -0.000007 -0.000005 1.655703 1.309406 -2.860167 -36.015796 -0.000012 -0.000030 0.325335 0.032089 0.290471 -8.445556 5.620701 -0.475816 2.318530 0.000012 -0.000005 -0.608566 0.334220 -0.685159 -0.000001 0.000002 -0.000011 
-0.913038 2.957260 2.212207 -9.862457 6.420763 155.465173 -0.000000 0.154692 0.259874 0.000002 0.000005 -0.000004 -2.759121 1.421040 1.640632 -9.339626 4.404304 5.688324 0.000000 0.012376 0.661279 -4.200223 3.140510 0.976462 1.463883 -0.412974 -0.005918 0.060085 -0.196775 0.638168 -1.749724 9.897152 -0.127534 16.991723 6.825541 -32.793063 0.129170 -0.042975 -49.735774 -15.569054 18.870810 -31.142473 0.267867 -0.074399 0.023426 0.000007 -0.000006 -0.000001 0.000001 -0.000001 0.000001 -0.000003 0.000002 -0.000002 0.271865 -0.006476 0.027053 -0.000004 -0.000007 0.000006 -0.000002 -0.000002 0.000002 -0.000002 0.000002 0.000007 0.257650 0.060956 0.018054 0.000003 -0.000007 -0.000007 0.000001 0.000007 -0.000001 0.000002 -0.000004 0.000007 0.239089 0.105269 -0.018170 -0.000006 -0.000005 0.000002 -0.000004 0.000003 -0.000008 -0.000008 -0.000006 -0.000012 0.055412 -0.042009 -0.041942 0.000003 -0.000015 0.000003 -0.000004 -0.000006 0.000006 -0.000004 -0.000006 0.000006 -0.060085 -0.196776 0.638168 5.355434 -12.510618 8.198048 46.660745 -63.283970 47.291202 0.025551 -0.002743 9.243771 -0.000000 0.000003 0.000009 -0.267871 -0.074399 0.023430 0.000002 -0.000011 0.000001 -0.000000 0.000009 0.000004 0.000000 -0.000007 0.000007 -0.271867 -0.006479 0.027053 0.000000 -0.000002 -0.000002 -0.000001 0.000003 0.000006 0.000002 -0.000004 -0.000002 -0.257650 0.060956 0.018057 -0.000002 -0.000008 -0.000005 -0.000002 0.000005 -0.000001 0.000001 0.000004 0.000004 -0.239089 0.105269 -0.018170 0.000002 -0.000005 0.000006 -0.000002 -0.000001 0.000001 -0.000000 -0.000003 -0.000008 -0.055412 -0.042006 -0.041938 -0.000007 0.000003 -0.000012 -0.000003 -0.000010 0.000012 -0.000006 -0.000003 0.000003 -0.315237 0.018289 0.018331 -3.878543 19.845347 9.241402 32.132628 -0.000004 -0.000004 1.113185 -0.075533 0.152740 -33.945145 -0.000012 -0.000031 0.325305 0.032096 0.290470 -8.661424 5.552100 -0.606915 2.154514 0.000012 0.000001 -0.723781 0.310665 -0.633175 0.000004 -0.000000 -0.000017 
